<svg xmlns="http://www.w3.org/2000/svg" xmlns:xlink="http://www.w3.org/1999/xlink" version="1.1" id="Layer_1" x="0px" y="0px" viewBox="0 0 280 80" style="enable-background:new 0 0 280 80;" xml:space="preserve">
<style type="text/css">
	.st0{fill:#00A8E1;}
	.st1{fill-rule:evenodd;clip-rule:evenodd;fill:#FFAD48;}
	.st2{fill-rule:evenodd;clip-rule:evenodd;fill:#FFFFFF;}
</style>
<g>
	<g>
		<g>
			<g>
				<path class="st0" d="M156,58.9c-0.4,0-0.7-0.1-0.9-0.3c-0.2-0.2-0.3-0.5-0.3-0.9v-32c0-0.4,0.1-0.8,0.3-0.9      c0.2-0.2,0.5-0.3,0.9-0.3h3.4c0.7,0,1.2,0.4,1.3,1.1l0.3,1.2c1-0.9,2.1-1.7,3.5-2.2c1.4-0.5,2.7-0.8,4.1-0.8      c3.1,0,5.5,1.1,7.4,3.4c1.8,2.3,2.7,5.3,2.7,9.2c0,2.7-0.4,5-1.3,6.9c-0.9,2-2.1,3.5-3.6,4.6c-1.5,1.1-3.3,1.6-5.3,1.6      c-1.3,0-2.6-0.2-3.7-0.6c-1.2-0.4-2.2-1-3-1.7v10.5c0,0.4-0.1,0.8-0.3,0.9c-0.2,0.2-0.5,0.3-0.9,0.3H156z M166.5,44.3      c1.8,0,3.1-0.6,4-1.8c0.8-1.2,1.3-3.1,1.3-5.7c0-2.7-0.4-4.6-1.2-5.8c-0.8-1.2-2.2-1.8-4-1.8c-1.7,0-3.2,0.4-4.7,1.3V43      C163.2,43.8,164.8,44.3,166.5,44.3z"/>
				<path class="st0" d="M184.7,49c-0.4,0-0.7-0.1-0.9-0.3c-0.2-0.2-0.3-0.5-0.3-0.9V25.7c0-0.4,0.1-0.8,0.3-0.9      c0.2-0.2,0.5-0.3,0.9-0.3h3.4c0.7,0,1.2,0.4,1.3,1.1l0.6,2.6c1.3-1.4,2.5-2.4,3.6-3c1.1-0.6,2.3-0.9,3.6-0.9h0.7      c0.4,0,0.8,0.1,1,0.3c0.2,0.2,0.3,0.5,0.3,0.9v4c0,0.4-0.1,0.7-0.3,0.9c-0.2,0.2-0.5,0.3-0.9,0.3c-0.2,0-0.5,0-0.9,0      c-0.4,0-0.8,0-1.3,0c-0.7,0-1.6,0.1-2.7,0.3c-1.1,0.2-1.9,0.5-2.7,0.8v16.1c0,0.4-0.1,0.7-0.3,0.9c-0.2,0.2-0.5,0.3-0.9,0.3      H184.7z"/>
				<path class="st0" d="M206.1,20.7c-1.2,0-2.2-0.3-2.9-1c-0.7-0.7-1.1-1.6-1.1-2.7c0-1.2,0.4-2.1,1.1-2.7c0.7-0.7,1.7-1,2.9-1      c1.2,0,2.2,0.3,2.9,1c0.7,0.7,1.1,1.6,1.1,2.7c0,1.1-0.4,2.1-1.1,2.7C208.3,20.4,207.4,20.7,206.1,20.7z M203.8,49      c-0.4,0-0.7-0.1-0.9-0.3c-0.2-0.2-0.3-0.5-0.3-0.9V25.7c0-0.4,0.1-0.8,0.3-0.9c0.2-0.2,0.5-0.3,0.9-0.3h4.6      c0.4,0,0.8,0.1,0.9,0.3c0.2,0.2,0.3,0.5,0.3,0.9v22.1c0,0.4-0.1,0.7-0.3,0.9c-0.2,0.2-0.5,0.3-0.9,0.3H203.8z"/>
				<path class="st0" d="M216.8,49c-0.4,0-0.7-0.1-0.9-0.3c-0.2-0.2-0.3-0.5-0.3-0.9V25.7c0-0.4,0.1-0.8,0.3-0.9      c0.2-0.2,0.5-0.3,0.9-0.3h3.4c0.7,0,1.2,0.4,1.3,1.1l0.4,1.3c1.7-1.1,3.2-1.9,4.6-2.4c1.4-0.5,2.8-0.7,4.2-0.7      c2.9,0,4.9,1,6.1,3.1c1.6-1.1,3.2-1.9,4.6-2.3c1.4-0.5,2.9-0.7,4.5-0.7c2.2,0,4,0.6,5.2,1.9c1.2,1.2,1.8,3,1.8,5.2v16.9      c0,0.4-0.1,0.7-0.3,0.9c-0.2,0.2-0.5,0.3-0.9,0.3h-4.6c-0.4,0-0.7-0.1-0.9-0.3c-0.2-0.2-0.3-0.5-0.3-0.9V32.4      c0-2.2-1-3.3-2.9-3.3c-1.7,0-3.5,0.4-5.2,1.2v17.4c0,0.4-0.1,0.7-0.3,0.9c-0.2,0.2-0.5,0.3-0.9,0.3H232c-0.4,0-0.7-0.1-0.9-0.3      c-0.2-0.2-0.3-0.5-0.3-0.9V32.4c0-2.2-1-3.3-2.9-3.3c-1.8,0-3.5,0.4-5.3,1.3v17.3c0,0.4-0.1,0.7-0.3,0.9      c-0.2,0.2-0.5,0.3-0.9,0.3H216.8z"/>
				<path class="st0" d="M269.5,49.7c-4,0-7-1.1-9.1-3.3c-2.1-2.2-3.2-5.3-3.2-9.3c0-4.2,1.1-7.4,3.3-9.8c2.2-2.4,5.2-3.5,9.1-3.5      c3,0,5.3,0.7,7,2.2c1.7,1.4,2.5,3.4,2.5,5.7c0,2.4-0.9,4.2-2.7,5.4c-1.8,1.2-4.5,1.8-8,1.8c-1.8,0-3.4-0.2-4.7-0.5      c0.2,2.1,0.8,3.7,1.9,4.6c1.1,0.9,2.8,1.4,5,1.4c0.9,0,1.8-0.1,2.6-0.2c0.8-0.1,2-0.4,3.5-0.7c0.1,0,0.2-0.1,0.3-0.1      c0.1,0,0.2,0,0.2,0c0.5,0,0.8,0.4,0.8,1.1v2.2c0,0.5-0.1,0.9-0.2,1.1c-0.1,0.2-0.4,0.4-0.8,0.6      C274.6,49.3,272.1,49.7,269.5,49.7z M267.9,34.7c1.6,0,2.8-0.2,3.5-0.7c0.7-0.5,1.1-1.3,1.1-2.3c0-2-1.2-3-3.6-3      c-3.1,0-4.8,1.9-5.3,5.7C264.9,34.5,266.4,34.7,267.9,34.7z"/>
			</g>
		</g>
		<g>
			<path class="st1" d="M89.7,57.7c-8.3,6.1-20.3,9.4-30.7,9.4c-14.5,0-27.6-5.4-37.5-14.3c-0.8-0.7-0.1-1.7,0.9-1.1     c10.7,6.2,23.9,10,37.5,10c9.2,0,19.3-1.9,28.6-5.9C89.9,55.2,91,56.7,89.7,57.7L89.7,57.7z"/>
			<path class="st1" d="M93.1,53.8c-1.1-1.4-7-0.6-9.7-0.3c-0.8,0.1-0.9-0.6-0.2-1.1C88,49,95.8,50,96.7,51.1     c0.9,1.1-0.2,8.9-4.7,12.7c-0.7,0.6-1.3,0.3-1-0.5C91.9,60.8,94.2,55.2,93.1,53.8L93.1,53.8z"/>
		</g>
	</g>
	<g>
		<path class="st2" d="M83.6,28.8v-3.2c0-0.5,0.4-0.8,0.8-0.8l14.5,0c0.5,0,0.8,0.3,0.8,0.8v2.8c0,0.5-0.4,1.1-1.1,2l-7.5,10.8    c2.8-0.1,5.8,0.4,8.3,1.8c0.6,0.3,0.7,0.8,0.8,1.3v3.5c0,0.5-0.5,1-1.1,0.7c-4.5-2.3-10.4-2.6-15.4,0c-0.5,0.3-1-0.3-1-0.8v-3.3    c0-0.5,0-1.4,0.5-2.2l8.7-12.5l-7.6,0C84,29.6,83.6,29.2,83.6,28.8L83.6,28.8z"/>
		<path class="st2" d="M112.4,28.9c-3.3,0-3.5,4.4-3.5,7.2c0,2.8,0,8.7,3.4,8.7c3.4,0,3.6-4.8,3.6-7.7c0-1.9-0.1-4.2-0.7-6    C114.8,29.5,113.8,28.9,112.4,28.9L112.4,28.9z M112.3,24.3c6.6,0,10.1,5.6,10.1,12.8c0,6.9-3.9,12.4-10.1,12.4    c-6.4,0-10-5.6-10-12.7C102.4,29.8,105.9,24.3,112.3,24.3L112.3,24.3z"/>
		<path class="st2" d="M76.5,49c-0.3,0.3-0.8,0.3-1,0.1c-1.5-1.2-2.5-2.9-2.5-2.9c-2.4,2.5-4.1,3.2-7.3,3.2c-3.7,0-6.6-2.3-6.6-6.9    c0-3.6,1.9-6,4.7-7.2c2.4-1.1,5.8-1.2,8.3-1.5c0,0,0.2-2.8-0.5-3.8c-0.6-0.8-1.6-1.1-2.5-1.1c-1.6,0-3.2,0.9-3.5,2.6    c-0.1,0.5-0.5,0.9-0.8,0.9l-4.2-0.5c-0.3,0-0.8-0.4-0.7-0.9c1-5.2,5.7-6.8,9.9-6.8c2.2,0,5,0.6,6.7,2.2c2.2,2,1.9,4.7,1.9,7.6v6.9    c0,2.1,0.9,3,1.7,4.1c0.3,0.4,0.3,0.9,0,1.2C79,46.8,76.5,49,76.5,49L76.5,49z M72,38.2c0,1.7,0,3.2-0.8,4.7c-0.7,1.2-1.8,2-3.1,2    c-1.7,0-2.7-1.3-2.7-3.2c0-3.8,3.4-4.5,6.6-4.5V38.2L72,38.2z"/>
		<path class="st2" d="M18.5,49c-0.3,0.3-0.8,0.3-1,0.1c-1.5-1.2-2.5-2.9-2.5-2.9c-2.4,2.5-4.1,3.2-7.3,3.2C3.9,49.3,1,47,1,42.4    c0-3.6,1.9-6,4.7-7.2c2.4-1.1,5.8-1.2,8.3-1.5c0,0,0.2-2.8-0.5-3.8c-0.6-0.8-1.6-1.1-2.5-1.1c-1.6,0-3.2,0.9-3.5,2.6    c-0.1,0.5-0.5,0.9-0.8,0.9l-4.2-0.5c-0.3,0-0.8-0.4-0.7-0.9c1-5.2,5.7-6.8,9.9-6.8c2.2,0,5,0.6,6.7,2.2c2.2,2,1.9,4.7,1.9,7.6v6.9    c0,2.1,0.9,3,1.7,4.1c0.3,0.4,0.3,0.9,0,1.2C21,46.8,18.5,49,18.5,49L18.5,49z M14,38.2c0,1.7,0,3.2-0.8,4.7c-0.7,1.2-1.8,2-3.1,2    c-1.7,0-2.7-1.3-2.7-3.2c0-3.8,3.4-4.5,6.6-4.5V38.2L14,38.2z"/>
		<path class="st2" d="M31.4,36.2c0-2.6-0.1-6.3,3.1-6.3c3.1,0,2.7,3.7,2.7,6.3l0,12c0,0.4,0.3,0.8,0.8,0.8h4.4    c0.5,0,0.9-0.4,0.9-0.8v-12c0-1.3,0-3.2,0.4-4.3c0.5-1.1,1.6-1.9,2.6-1.9c1.3,0,2.3,0.4,2.6,2c0.2,0.9,0.1,3.3,0.1,4.3l0,12    c0,0.4,0.3,0.8,0.8,0.8h4.4c0.5,0,0.9-0.4,0.9-0.8l0-14.3c0-2.4,0.3-5.2-1.1-7.1c-1.2-1.7-3.3-2.5-5.1-2.5c-2.6,0-5,1.3-6.1,4.2    c-1.2-2.9-3-4.2-5.7-4.2c-2.7,0-4.7,1.3-5.8,4.2h-0.1v-2.9c0-0.5-0.4-0.8-0.8-0.8h-4.1c-0.5,0-0.8,0.4-0.8,0.8v22.6    c0,0.5,0.4,0.8,0.8,0.8h4.4c0.5,0,0.8-0.4,0.8-0.8L31.4,36.2L31.4,36.2z"/>
		<path class="st2" d="M131.8,48.2c0,0.5-0.4,0.8-0.8,0.8h-4.4c-0.5,0-0.8-0.4-0.8-0.8V25.6c0-0.5,0.4-0.8,0.8-0.8h4.1    c0.5,0,0.8,0.4,0.8,0.6v3.5h0.1c1.2-3.1,3-4.6,6-4.6c2,0,3.9,0.7,5.2,2.7c1.2,1.8,1.2,4.9,1.2,7.1v14.3c0,0.4-0.4,0.7-0.8,0.7    h-4.4c-0.4,0-0.7-0.3-0.8-0.7l0-13.7c0-4.6-1.8-4.7-2.8-4.7c-1.2,0-2.1,0.9-2.5,1.8c-0.6,1.4-0.7,2.8-0.7,4.3L131.8,48.2    L131.8,48.2z"/>
	</g>
</g>
</svg>