<svg width="128" height="128" viewBox="0 0 128 128" fill="none" xmlns="http://www.w3.org/2000/svg">
<path d="M12.2457 21.8982C10.3275 36.3833 10.0385 51.0378 11.3842 65.5872C11.9141 71.2358 12.1036 78.313 17.0239 82.0992C21.4655 85.5168 27.662 85.1942 32.9561 85.1494L77.1839 84.7654L99.4252 84.576C102.516 84.5491 105.834 84.6541 108.641 83.1424C111.016 81.8624 112.657 79.5584 113.596 77.0816C114.781 73.952 114.772 70.5165 114.573 67.2256C114.373 63.9347 114.123 60.672 113.943 57.3914C113.572 50.6278 113.295 43.8605 112.911 37.097C112.721 33.7357 112.503 30.3757 112.23 27.0195C112.121 25.6704 111.961 24.375 111.451 23.1104C110.769 21.414 109.653 19.9266 108.216 18.7973C106.778 17.6679 105.068 16.9364 103.259 16.6758C101.743 16.4544 100.187 16.3878 98.6649 16.2675C91.0053 15.6625 83.3373 15.2009 75.6607 14.8826C66.7839 14.4986 57.8943 14.2874 49.0073 14.3834C41.2799 14.4666 33.5001 14.7123 25.8393 15.7837C23.1141 16.1677 20.3698 16.6426 17.7509 17.504C16.1036 18.0442 14.2399 18.7571 13.0777 20.1101C12.6501 20.5805 12.3667 21.1639 12.261 21.7907C12.1893 22.3027 12.965 22.5165 13.0367 22.0045C13.2223 20.6835 14.4562 19.8285 15.6274 19.2282C17.6409 18.1952 19.918 17.6602 22.1209 17.2186C28.9458 15.849 35.9961 15.5213 42.9362 15.3114C51.5519 15.049 60.1791 15.159 68.7922 15.4317C76.8042 15.6877 84.8093 16.0909 92.8076 16.6413C95.9359 16.8572 99.0621 17.0995 102.186 17.3683C104.632 17.5834 106.89 18.4858 108.633 20.2522C109.506 21.1342 110.199 22.1776 110.674 23.3242C111.193 24.5914 111.334 25.8957 111.442 27.2486C112.489 40.2701 112.809 53.3376 113.71 66.3693C114.105 72.1037 113.907 79.753 107.863 82.6368C104.864 84.0678 101.248 83.7581 98.0185 83.7888L87.1538 83.8822L44.2047 84.2483L33.4668 84.3405C30.5714 84.3648 27.6569 84.4518 24.7769 84.0934C22.1029 83.7594 19.342 82.9977 17.2338 81.2442C14.9631 79.3536 13.8482 76.6016 13.2453 73.7779C12.5669 70.5984 12.3314 67.3024 12.0537 64.0691C11.7499 60.538 11.5438 56.9997 11.4354 53.4541C11.2217 46.3839 11.3952 39.3072 11.9551 32.256C12.2299 28.7923 12.5951 25.3363 13.0508 21.888C13.1173 21.385 12.3122 21.3901 12.2457 21.8982Z" fill="#112870"/>
<path d="M13.3594 29.8982C25.9598 29.7754 38.5605 29.7451 51.1617 29.8074C63.7629 29.8696 76.3623 30.0258 88.9601 30.2758C96.0248 30.4158 103.089 30.5864 110.152 30.7878C110.664 30.8019 110.664 29.9968 110.152 29.9827C97.5566 29.6294 84.9592 29.3692 72.3598 29.2019C59.7603 29.0347 47.1604 28.9587 34.5601 28.9741C27.4936 28.9843 20.4272 29.024 13.3607 29.0931C12.8423 29.0931 12.841 29.9034 13.3607 29.8982H13.3594Z" fill="#FF7348"/>
<path d="M17.9749 22.2566V22.0506C17.9819 21.899 17.9445 21.7486 17.8674 21.6179C17.8164 21.4766 17.7279 21.3518 17.6114 21.257C17.4989 21.1477 17.3614 21.0677 17.2108 21.024C17.061 20.9533 16.8962 20.9204 16.7308 20.928C16.407 20.9272 16.0941 21.0442 15.8501 21.257C15.7393 21.358 15.6499 21.4803 15.5875 21.6167C15.525 21.7531 15.4907 21.9006 15.4866 22.0506V22.2566C15.4789 22.4081 15.5158 22.5586 15.5928 22.6893C15.645 22.8303 15.7333 22.9552 15.8488 23.0515C15.9634 23.1611 16.1032 23.2407 16.2559 23.2832C16.4058 23.3537 16.5704 23.387 16.7359 23.3805C17.0595 23.3809 17.3724 23.264 17.6165 23.0515C17.7277 22.9504 17.8172 22.8278 17.8799 22.6912C17.9426 22.5547 17.9771 22.4068 17.9813 22.2566H17.9749Z" fill="#4081F4"/>
<path d="M22.428 23.3805C24.0292 23.3805 24.0318 21.1328 22.428 21.1328C20.8241 21.1328 20.8228 23.3805 22.428 23.3805Z" fill="#4081F4"/>
<path d="M27.4419 23.3805C29.0444 23.3805 29.047 21.1328 27.4419 21.1328C25.8368 21.1328 25.838 23.3805 27.4419 23.3805Z" fill="#4081F4"/>
<path d="M94.9672 24.375H97.9829C98.4949 24.375 98.4949 23.5699 97.9829 23.5699H94.9672C94.4552 23.5699 94.4475 24.375 94.9672 24.375Z" fill="#A89FFF"/>
<path d="M41.1329 49.9021C41.2898 49.2094 41.7144 48.607 42.314 48.2264C42.9135 47.8458 43.6394 47.7179 44.3329 47.8707L56.7284 50.6483C57.3894 50.8356 57.9536 51.2689 58.3051 51.8592C58.6566 52.4494 58.7688 53.1519 58.6185 53.8223C58.4683 54.4926 58.0671 55.0801 57.4973 55.4639C56.9275 55.8477 56.2324 55.9988 55.5547 55.8861L43.1592 53.1085C42.4661 52.9505 41.8638 52.5245 41.4841 51.9236C41.1043 51.3227 40.9781 50.5958 41.1329 49.9021Z" fill="#A89FFF"/>
<path d="M26.7367 44.105C27.453 42.0685 28.9477 40.3993 30.8931 39.4635C32.8384 38.5276 35.0755 38.4016 37.1137 39.113L42.9377 41.161C43.969 41.4967 44.9228 42.0351 45.7431 42.7446C46.5634 43.4541 47.2337 44.3203 47.7145 45.2924C48.1954 46.2646 48.4772 47.323 48.5433 48.4055C48.6094 49.4881 48.4586 50.5729 48.0996 51.5963C47.7406 52.6198 47.1808 53.5611 46.4529 54.3652C45.7251 55.1692 44.8439 55.8198 43.8611 56.2785C42.8784 56.7373 41.8139 56.9951 40.7301 57.0367C39.6464 57.0783 38.5652 56.903 37.5502 56.521L31.7249 54.4794C29.6898 53.7623 28.0219 52.2676 27.0869 50.323C26.1519 48.3783 26.026 46.1423 26.7367 44.105ZM42.8647 49.76C43.1075 49.0659 43.065 48.3039 42.7466 47.6411C42.4281 46.9783 41.8598 46.4689 41.1662 46.2246L35.3409 44.1766C34.651 43.9499 33.8997 44.0027 33.2484 44.3237C32.597 44.6448 32.0975 45.2085 31.8572 45.8937C31.6169 46.579 31.6549 47.3312 31.963 47.9888C32.2712 48.6463 32.825 49.1568 33.5054 49.4106L39.3306 51.4586C40.0241 51.7001 40.785 51.657 41.4467 51.3386C42.1084 51.0202 42.6169 50.4526 42.8609 49.76H42.8647Z" fill="#A89FFF"/>
<path d="M3.20905 43.1757C3.31191 41.02 4.26551 38.993 5.86072 37.5394C7.45592 36.0858 9.56251 35.3241 11.7185 35.4215L17.8842 35.712C19.9925 35.8766 21.9541 36.8551 23.3536 38.4404C24.7531 40.0258 25.4808 42.0935 25.3827 44.2059C25.2846 46.3183 24.3683 48.3097 22.8278 49.7584C21.2873 51.2072 19.2435 51.9996 17.129 51.968L10.9633 51.6864C8.80733 51.5835 6.78019 50.6298 5.32652 49.0343C3.87285 47.4388 3.11135 45.3319 3.20905 43.1757ZM20.2766 43.9693C20.3099 43.2349 20.0507 42.5172 19.5557 41.9737C19.0606 41.4302 18.3702 41.1053 17.6359 41.0701L11.4702 40.7834C10.7413 40.7594 10.0323 41.0234 9.49666 41.5183C8.96102 42.0132 8.64183 42.6991 8.60817 43.4276C8.57451 44.1561 8.82911 44.8685 9.31684 45.4107C9.80456 45.9529 10.4862 46.2812 11.2142 46.3245L17.3812 46.6112C18.1152 46.6435 18.832 46.3836 19.3747 45.8884C19.9174 45.3932 20.2417 44.7031 20.2766 43.9693Z" fill="#A89FFF"/>
<path d="M64.8219 68.6413L59.4958 67.968C59.6903 66.432 59.9783 64.7936 60.2843 63.0605C60.8193 60.0205 61.3735 56.8755 61.4363 54.1261C61.4913 51.5008 61.0727 49.6615 60.1895 48.6605C58.9492 47.2525 56.5172 47.3728 55.7185 47.4125C53.5873 47.5162 51.8695 48.4147 50.4705 50.1594C49.2071 51.7325 48.2139 53.9597 47.5175 56.7808C46.2516 61.9008 46.459 67.1053 46.4615 67.1578L41.0996 67.3959C41.0881 67.1565 40.8526 61.4656 42.2798 55.6032C43.1579 51.9949 44.4929 49.0496 46.2478 46.8467C48.6363 43.8464 51.7351 42.2387 55.4638 42.0506C59.3191 41.8624 62.267 42.8915 64.2228 45.1111C68.1153 49.536 66.7636 57.216 65.5694 64C65.2801 65.664 64.9998 67.232 64.8219 68.6413Z" fill="#112870"/>
<path d="M64.6401 96.8422C62.7559 100.401 35.8631 97.856 34.2657 94.2349C32.6682 90.6137 34.6881 67.1065 36.9204 63.3421C39.1527 59.5776 64.7322 62.0685 67.2948 65.9494C69.8573 69.8304 66.5268 93.2838 64.6401 96.8422Z" fill="#F9CE46"/>
<path d="M53.3759 81.9021C53.3477 81.472 53.3977 79.7978 53.3605 78.3603C54.1397 77.9381 54.7609 77.2747 55.131 76.4695C55.5011 75.6642 55.6 74.7607 55.413 73.8945C55.2259 73.0283 54.763 72.2461 54.0937 71.6653C53.4244 71.0845 52.5847 70.7364 51.7008 70.6734C50.8169 70.6103 49.9363 70.8356 49.1913 71.3154C48.4463 71.7953 47.877 72.5038 47.5688 73.3347C47.2607 74.1656 47.2303 75.074 47.4823 75.9236C47.7343 76.7732 48.255 77.5182 48.9663 78.0467C48.6988 79.3267 48.5081 80.6464 48.2533 81.8957C48.0831 82.7341 46.565 87.1706 47.0937 88.2176C47.1183 88.276 47.1577 88.3269 47.2079 88.3655C47.2582 88.4041 47.3176 88.429 47.3804 88.4377C49.1033 88.6468 50.8325 88.7885 52.5682 88.8627C52.8319 88.873 53.1109 88.8781 53.3362 88.7347C53.7701 88.4518 53.7855 87.7901 53.7458 87.2474C53.6217 85.463 53.4898 83.6838 53.3759 81.9021Z" fill="#112870"/>
<path d="M117.76 90.4422C117.76 90.4422 105.91 69.2199 98.1095 65.0816C91.2461 61.5079 86.9914 59.6979 84.6695 63.6941C82.3476 67.6902 90.4961 71.6966 90.4961 71.6966C90.4961 71.6966 80.6401 75.2896 78.3361 87.5904C77.8599 94.048 93.1841 112.979 93.1841 112.979L117.76 90.4422Z" fill="#FC92C3"/>
<path d="M82.2245 73.6C82.2245 73.6 78.2565 73.3978 77.7279 78.1146C77.1993 82.8314 83.5045 83.8976 85.0815 80.5389C86.6585 77.1802 84.1074 74.2131 82.2245 73.6Z" fill="#FC92C3"/>
<path d="M90.9375 71.808C90.9375 71.808 85.5884 65.0765 82.286 68.6886C78.9836 72.3008 82.4844 77.7459 86.3142 77.0176C90.1439 76.2893 91.479 73.2058 90.9375 71.808Z" fill="#FC92C3"/>
<path d="M79.0093 80.5504C79.0093 80.5504 76.2086 80.2688 75.4099 83.8298C74.6112 87.3907 78.5702 90.336 80.8614 89.1443C83.1526 87.9527 84.4224 83.5559 82.7136 82.025C81.691 81.1126 80.3792 80.5904 79.0093 80.5504Z" fill="#FC92C3"/>
<path d="M80.9024 74.112C81.7577 75.62 83.1705 76.7322 84.8372 77.2096C85.3364 77.353 85.5488 76.5696 85.0522 76.4326C83.5857 76.0145 82.3436 75.0342 81.5962 73.705C81.3402 73.2544 80.6452 73.6602 80.9012 74.112H80.9024Z" fill="#112870"/>
<path d="M77.869 80.6976C79.2155 82.8185 82.7611 84.0013 84.653 81.9379C85.0037 81.5539 84.4354 80.9856 84.0846 81.3683C82.5576 83.0323 79.6405 81.9891 78.564 80.2918C78.2862 79.8553 77.5899 80.2585 77.8677 80.6976H77.869Z" fill="#112870"/>
<path d="M75.1079 86.3181C75.4996 87.3101 76.251 87.9821 77.0958 88.6003C77.9406 89.2185 78.8955 89.728 79.9783 89.664C80.4571 89.634 80.9247 89.5062 81.3521 89.2885C81.7795 89.0707 82.1578 88.7676 82.4635 88.3979C82.7691 88.0281 82.9957 87.5997 83.1292 87.1389C83.2628 86.6781 83.3004 86.1949 83.2398 85.719C83.1758 85.207 82.3694 85.207 82.4347 85.719C82.6395 87.3561 81.4913 88.8537 79.7889 88.8653C78.9594 88.8653 78.2388 88.4352 77.5873 87.9693C76.9025 87.4777 76.2023 86.912 75.8849 86.1069C75.6967 85.6307 74.9172 85.8381 75.1079 86.3206V86.3181Z" fill="#112870"/>
<path d="M81.6142 80.2931C81.7261 80.0253 81.9145 79.7964 82.1559 79.6352C82.3972 79.474 82.6808 79.3876 82.9711 79.3869C83.483 79.3869 83.483 78.5779 82.9711 78.5817C82.506 78.587 82.0534 78.7328 81.6728 79.0001C81.2921 79.2674 81.0013 79.6436 80.8386 80.0793C80.6491 80.5619 81.4274 80.7705 81.6142 80.2931Z" fill="white"/>
<path d="M79.2321 87.0861C79.2581 86.8494 79.3629 86.6283 79.5295 86.4582C79.6961 86.2881 79.915 86.1788 80.1511 86.1478C80.6631 86.0634 80.4455 85.2877 79.9374 85.3709C79.0938 85.5104 78.491 86.2528 78.427 87.0861C78.3873 87.5981 79.1949 87.5981 79.2321 87.0861Z" fill="white"/>
<path d="M84.6811 73.6269C84.7515 73.2278 84.9319 72.8563 85.2021 72.5542C85.5502 72.1702 84.9832 71.6019 84.6337 71.9859C84.2629 72.3846 84.0106 72.8789 83.9054 73.4131C83.8094 73.9251 84.5851 74.1363 84.6811 73.6269Z" fill="white"/>
<path d="M90.8621 71.4074C89.0035 70.4845 87.1411 69.28 85.7421 67.7274C84.2355 66.0544 84.4352 63.497 86.3232 62.1978C86.7469 61.9059 86.345 61.2083 85.9174 61.5027C84.023 62.8058 83.328 65.3197 84.48 67.3638C85.0701 68.4083 86.0851 69.2173 87.0157 69.943C88.0874 70.7762 89.24 71.4996 90.4563 72.1024C90.9197 72.3315 91.328 71.6378 90.8634 71.4074H90.8621Z" fill="#112870"/>
<path d="M63.5611 75.1731L63.5278 85.4131C63.5214 87.2704 62.4283 88.7693 61.0868 88.7616H60.6836C59.3409 88.7526 58.258 87.2397 58.2644 85.3811L58.2977 75.1411C58.3041 73.2838 59.3972 71.7837 60.7387 71.7926H61.1432C62.4846 71.808 63.5675 73.3158 63.5611 75.1731Z" fill="#75DDF9"/>
<path d="M73.915 75.264L73.8907 82.4576C73.8907 84.3302 72.7835 85.8419 71.4305 85.8342H70.98C69.627 85.8266 68.5352 84.2982 68.548 82.4282L68.5723 75.2333C68.5787 73.3606 69.6795 71.849 71.0324 71.8579H71.483C72.8321 71.8682 73.9214 73.3939 73.915 75.264Z" fill="#75DDF9"/>
<path d="M73.9111 76.3302V76.6182C73.9021 79.0784 72.4544 81.0637 70.6778 81.0534L62.0148 80.9984C60.2368 80.9869 58.8032 78.9824 58.8148 76.5184V76.2304C58.8224 73.7702 60.2701 71.7849 62.048 71.7965L70.7111 71.8502C72.4852 71.8656 73.92 73.8701 73.9111 76.3302Z" fill="#75DDF9"/>
<path d="M112.328 74.3757C112.328 75.7965 113.197 76.3302 111.991 76.3251L54.9812 76.2739C53.7754 76.2739 52.8052 75.1117 52.8052 73.6896C52.8052 72.2675 53.7946 71.1206 55.0004 71.1296L111.647 71.2576C112.858 71.2627 112.334 72.96 112.328 74.3757Z" fill="#75DDF9"/>
<path d="M57.646 75.1488C57.4975 77.9366 57.5743 80.7667 57.6972 83.5546C57.774 85.28 57.9724 87.3946 59.3394 88.6259C60.5593 89.7293 62.0095 89.1264 62.83 87.8874C64.1318 85.9187 63.8207 83.3242 63.5737 81.1034L63.1705 81.5053L67.0553 81.2659C67.2499 81.2544 67.6953 81.1379 67.831 81.2851C67.9116 81.3721 67.831 82.0019 67.831 82.1389C67.8577 82.6757 67.9436 83.208 68.087 83.7261C68.5631 85.4003 69.9852 87.0208 71.8489 86.1658C72.6963 85.7818 73.3273 85.0445 73.8265 84.2778C74.3999 83.3971 74.5113 82.4973 74.4972 81.4618C74.4755 79.7555 74.2617 78.0544 74.2796 76.3494C74.2796 75.8374 73.4796 75.8298 73.4745 76.3494C73.4579 77.9136 73.6294 79.4778 73.6819 81.0406C73.7126 81.9712 73.7382 82.8813 73.2364 83.7056C72.7782 84.4595 72.1228 85.2851 71.237 85.5398C70.2322 85.8291 69.4899 85.0278 69.1046 84.1818C68.8798 83.6697 68.7348 83.1262 68.6745 82.5702C68.6169 82.0826 68.7001 81.5706 68.613 81.0893C68.4466 80.1818 67.4982 80.4326 66.8108 80.4749L63.1692 80.6989C62.9708 80.7117 62.7417 80.8742 62.7673 81.1021C63.0054 83.232 63.4482 86.1517 61.815 87.8784C61.047 88.6925 60.119 88.4608 59.4956 87.5853C58.8326 86.6547 58.6393 85.4374 58.5484 84.3264C58.4204 82.8032 58.4294 81.2646 58.4114 79.7376C58.3935 78.2106 58.3679 76.6656 58.4499 75.1411C58.4767 74.6291 57.6716 74.6291 57.6447 75.1411L57.646 75.1488Z" fill="#112870"/>
<path d="M98.222 81.335C98.222 81.335 92.4466 69.1648 87.6082 71.808C82.7698 74.4512 86.9874 84.992 87.4098 86.3181C86.3052 87.3728 81.4809 94.8672 84.7346 101.015C87.9884 107.163 93.1826 112.984 93.1826 112.984C93.1826 112.984 114.475 95.2077 117.76 90.4422C113.633 82.9811 109.034 76.3558 98.222 81.335Z" fill="#FC92C3"/>
<path d="M84.48 92.6579C85.0053 91.328 85.6394 90.0437 86.3757 88.8179C86.7042 88.2718 87.0528 87.7376 87.4214 87.2154C87.7465 86.7546 88.0614 86.3872 87.8835 85.7984C87.6928 85.1802 87.3792 84.585 87.1513 83.9782C86.8877 83.273 86.6393 82.5587 86.4422 81.8342C86.016 80.3979 85.7937 78.9088 85.7817 77.4106C85.792 75.0451 86.9785 70.5754 90.2617 72.1626C91.4816 72.7526 92.3789 73.9277 93.2518 74.9286C94.2515 76.073 95.2166 77.2493 96.1357 78.4589C96.5897 79.022 97.0144 79.6082 97.408 80.215C97.6563 80.6246 97.8854 81.1546 98.3193 81.408C99.1936 81.92 100.383 81.1763 101.094 80.6848C101.518 80.393 101.116 79.6941 100.689 79.9898C100.299 80.2816 99.8671 80.5137 99.4086 80.6784C99.0925 80.7757 98.8595 80.8205 98.6009 80.5926C98.3821 80.3981 98.2592 80.0576 98.1081 79.8093C97.4118 78.6573 96.5107 77.6013 95.6761 76.5568C94.7379 75.3894 93.7689 74.24 92.7475 73.143C91.8937 72.2266 90.8966 71.351 89.6269 71.1066C86.9709 70.6022 85.5117 73.2928 85.1469 75.5277C84.6848 78.3437 85.3107 81.2134 86.2681 83.8566C86.4166 84.2675 86.5741 84.6733 86.7379 85.0778C86.8659 85.408 87.2205 85.9622 87.0925 86.3206C86.9875 86.6138 86.6649 86.9171 86.4857 87.1795C86.275 87.4893 86.0706 87.8037 85.8726 88.1229C85.0251 89.4961 84.302 90.9422 83.712 92.4441C83.5213 92.9254 84.2995 93.1354 84.4877 92.6579H84.48Z" fill="#112870"/>
<path d="M87.6595 75.0246C87.8361 76.1395 88.4147 77.2429 89.5232 77.6666C90.5305 78.0506 91.6992 77.6666 92.1651 76.6694C92.3814 76.2022 91.6877 75.7926 91.4701 76.2624C91.104 77.0509 90.2131 77.2006 89.504 76.7616C88.8256 76.3418 88.5542 75.5571 88.4365 74.8096C88.3558 74.2976 87.5801 74.5165 87.6595 75.0246Z" fill="white"/>
<path d="M124.766 71.808C124.929 73.6036 124.467 75.4006 123.456 76.8938C122.446 78.3871 120.95 79.4846 119.222 80C119.098 81.2126 118.692 82.3793 118.036 83.4066C117.38 84.4338 116.492 85.293 115.444 85.9151C114.396 86.5372 113.217 86.9049 112.001 86.9887C110.785 87.0725 109.566 86.8701 108.442 86.3977C107.319 85.9254 106.321 85.1962 105.531 84.2687C104.74 83.3412 104.177 82.2412 103.889 81.057C103.6 79.8729 103.593 78.6375 103.868 77.4501C104.143 76.2626 104.692 75.1562 105.472 74.2195C105.683 73.966 105.91 73.7258 106.15 73.5002C105.873 73.3216 105.606 73.1258 105.353 72.9139C104.417 72.1326 103.677 71.1425 103.192 70.0232C102.708 68.9039 102.493 67.6866 102.565 66.4692C102.636 65.2517 102.992 64.0681 103.605 63.0132C104.217 61.9584 105.068 61.0618 106.089 60.3956C107.11 59.7293 108.274 59.312 109.486 59.177C110.698 59.042 111.925 59.1932 113.068 59.6185C114.211 60.0437 115.238 60.7311 116.067 61.6254C116.897 62.5198 117.504 63.5961 117.842 64.768C119.63 64.9641 121.296 65.7719 122.558 67.0546C123.819 68.3374 124.599 70.0165 124.766 71.808ZM115.768 77.1328L117.42 76.9779C118.603 76.8703 119.695 76.297 120.456 75.3841C121.217 74.4712 121.584 73.2935 121.476 72.1101C121.368 70.9267 120.795 69.8345 119.882 69.0738C118.969 68.3131 117.791 67.9461 116.608 68.0538L114.956 68.1971L114.816 66.5229C114.735 65.6415 114.394 64.804 113.838 64.1159C113.281 63.4279 112.533 62.9202 111.688 62.6568C110.843 62.3935 109.939 62.3864 109.09 62.6363C108.241 62.8863 107.485 63.3822 106.917 64.0613C106.35 64.7405 105.996 65.5726 105.901 66.4525C105.806 67.3325 105.973 68.2209 106.383 69.0056C106.792 69.7904 107.425 70.4364 108.201 70.862C108.977 71.2876 109.861 71.4738 110.743 71.3971L112.396 71.2525L112.54 72.9165V72.9318L112.696 74.583L111.045 74.7379C110.164 74.8208 109.327 75.1629 108.64 75.721C107.953 76.2791 107.447 77.0282 107.185 77.8737C106.923 78.7193 106.918 79.6234 107.17 80.472C107.421 81.3206 107.919 82.0756 108.599 82.6418C109.279 83.208 110.112 83.5599 110.992 83.6533C111.873 83.7466 112.761 83.5771 113.545 83.1662C114.329 82.7552 114.973 82.1213 115.397 81.3444C115.821 80.5674 116.006 79.6823 115.927 78.8006V78.7789L115.768 77.1328Z" fill="#75DDF9"/>
<path d="M113.152 74.8685C113.08 73.7024 113.057 72.4365 112.778 71.296C112.632 70.6969 112.26 70.4281 111.659 70.3769C110.507 70.2784 109.248 70.3616 108.116 70.0889C106.964 69.8112 106.283 68.7091 106.196 67.5789C106.109 66.4486 106.495 64.9894 107.291 64.1485C108.059 63.3305 109.53 62.8928 110.63 62.9811C113.174 63.1872 114.205 65.9635 114.426 68.128C114.478 68.64 115.283 68.64 115.231 68.128C115.039 66.2438 114.474 64.3097 112.927 63.0937C111.403 61.8982 109.451 61.9878 107.77 62.8262C106.065 63.6761 105.236 65.8585 105.4 67.6902C105.569 69.5641 106.875 70.8083 108.713 70.9798C109.353 71.0387 109.993 71.0733 110.625 71.1193C110.895 71.1385 111.631 71.0541 111.868 71.2205C112.193 71.4509 112.141 72.5005 112.182 72.8627C112.255 73.5309 112.31 74.199 112.349 74.8697C112.381 75.3817 113.186 75.3881 113.154 74.8697L113.152 74.8685Z" fill="#112870"/>
<path d="M104.988 74.4384C103.836 75.6634 103.556 77.5245 103.61 79.1488C103.654 80.8365 104.161 82.4797 105.075 83.8989C106.867 86.6099 110.364 88.0832 113.536 87.1475C115.255 86.6355 116.649 85.4221 117.782 84.0755C118.355 83.3933 118.879 82.6675 119.201 81.8266C119.318 81.5057 119.388 81.17 119.41 80.8294C119.424 80.681 119.402 80.471 119.511 80.3686C119.62 80.2662 119.909 80.2406 120.06 80.2112C121.544 79.8797 122.842 78.8288 123.731 77.623C124.818 76.1498 125.151 74.3373 125.198 72.5402C125.252 70.4742 124.71 68.4314 123.382 66.816C122.758 66.0561 121.976 65.4422 121.089 65.0176C120.203 64.593 119.234 64.3679 118.251 64.3584C117.733 64.3584 117.732 65.161 118.251 65.1635C121.866 65.1814 124.267 68.4198 124.395 71.8195C124.457 73.527 124.246 75.3574 123.31 76.8243C122.578 77.9763 121.352 79.0874 119.997 79.401C119.604 79.4918 119.087 79.529 118.827 79.8861C118.488 80.3456 118.641 81.0803 118.429 81.609C117.821 83.1347 116.443 84.5811 115.101 85.5014C112.522 87.273 108.97 86.8262 106.748 84.6656C105.526 83.4765 104.781 81.8688 104.516 80.1958C104.251 78.5229 104.348 76.297 105.562 75.0042C105.916 74.6202 105.348 74.057 104.992 74.4358L104.988 74.4384Z" fill="#112870"/>
<path d="M75.1285 56.1805C74.4754 54.1242 74.6642 51.8929 75.6534 49.9756C76.6427 48.0583 78.3517 46.6114 80.406 45.952L86.2863 44.073C87.3047 43.7476 88.3772 43.6261 89.4425 43.7152C90.5079 43.8044 91.5453 44.1025 92.4955 44.5925C93.4456 45.0826 94.2899 45.755 94.9802 46.5713C95.6705 47.3877 96.1933 48.332 96.5186 49.3504C96.844 50.3688 96.9655 51.4413 96.8764 52.5067C96.7873 53.572 96.4891 54.6094 95.9991 55.5596C95.509 56.5097 94.8366 57.3541 94.0203 58.0444C93.2039 58.7347 92.2596 59.2574 91.2412 59.5827L85.3609 61.4605C83.3038 62.115 81.071 61.9267 79.1527 60.9368C77.2343 59.9469 75.7871 58.2363 75.1285 56.1805ZM91.405 50.9799C91.1796 50.2806 90.6861 49.6993 90.0327 49.3634C89.3793 49.0275 88.6194 48.9643 87.9196 49.1879L82.0393 51.0656C81.3477 51.2969 80.7751 51.7912 80.4453 52.4415C80.1154 53.0918 80.0549 53.8458 80.2769 54.5404C80.4988 55.235 80.9853 55.8142 81.6311 56.1528C82.2769 56.4914 83.0301 56.562 83.7276 56.3495L89.6079 54.4704C89.9552 54.3593 90.2772 54.1809 90.5554 53.9454C90.8337 53.7098 91.0629 53.4217 91.2298 53.0975C91.3967 52.7734 91.4981 52.4195 91.5281 52.0561C91.5582 51.6928 91.5164 51.327 91.405 50.9799Z" fill="#A89FFF"/>
<path d="M98.1197 48.6656C97.4651 46.6089 97.6531 44.3764 98.6425 42.4581C99.6319 40.5398 101.342 39.0923 103.397 38.4333L109.276 36.5555C110.298 36.2178 111.376 36.0859 112.449 36.1676C113.522 36.2492 114.568 36.5426 115.527 37.031C116.485 37.5194 117.338 38.193 118.034 39.0128C118.731 39.8326 119.259 40.7824 119.586 41.8073C119.914 42.8322 120.035 43.9119 119.942 44.9839C119.85 46.0558 119.546 47.0988 119.048 48.0526C118.55 49.0064 117.868 49.852 117.041 50.5405C116.214 51.2291 115.259 51.7469 114.231 52.064L108.352 53.9431C106.295 54.5973 104.063 54.4092 102.145 53.4198C100.227 52.4305 98.7791 50.7208 98.1197 48.6656ZM114.396 43.465C114.171 42.7657 113.677 42.1844 113.024 41.8485C112.371 41.5126 111.611 41.4495 110.911 41.673L105.03 43.552C104.33 43.7759 103.747 44.2689 103.41 44.9225C103.073 45.5762 103.009 46.3369 103.233 47.0375C103.457 47.738 103.95 48.3208 104.604 48.6579C105.257 48.9949 106.018 49.0585 106.719 48.8346L112.598 46.9568C113.299 46.7319 113.882 46.2378 114.22 45.5831C114.557 44.9283 114.62 44.1665 114.396 43.465Z" fill="#A89FFF"/>
<path d="M50.9876 54.2567C51.094 52.101 52.0511 50.0755 53.6491 48.6247C55.247 47.1739 57.3552 46.4162 59.5111 46.5178L65.6768 46.816C66.7502 46.8594 67.8044 47.1148 68.7786 47.5675C69.7528 48.0202 70.6278 48.6612 71.3531 49.4537C72.0784 50.2461 72.6397 51.1742 73.0046 52.1846C73.3696 53.195 73.5309 54.2676 73.4794 55.3406C73.4279 56.4136 73.1645 57.4658 72.7045 58.4366C72.2444 59.4073 71.5968 60.2774 70.7989 60.9967C70.001 61.716 69.0686 62.2703 68.0555 62.6275C67.0424 62.9848 65.9686 63.1381 64.896 63.0784L58.7315 62.7815C56.5749 62.676 54.5481 61.7191 53.0962 60.1209C51.6443 58.5226 50.886 56.4135 50.9876 54.2567ZM68.0538 55.081C68.0886 54.3466 67.8307 53.6283 67.3366 53.0839C66.8425 52.5394 66.1526 52.2131 65.4183 52.1767L59.2525 51.8797C58.8842 51.8541 58.5146 51.9024 58.1652 52.0215C57.8158 52.1407 57.4937 52.3284 57.2178 52.5737C56.9418 52.8189 56.7177 53.1168 56.5584 53.4498C56.399 53.7828 56.3078 54.1443 56.29 54.513C56.2722 54.8817 56.3282 55.2503 56.4547 55.5971C56.5811 55.9439 56.7756 56.262 57.0266 56.5327C57.2776 56.8034 57.5801 57.0213 57.9164 57.1736C58.2527 57.3259 58.616 57.4095 58.985 57.4195L65.152 57.7178C65.8862 57.7519 66.604 57.4934 67.1479 56.9992C67.6919 56.5049 68.0176 55.8151 68.0538 55.081Z" fill="#A89FFF"/>
<path d="M65.28 55.0925C65.2181 54.3843 65.4393 53.6805 65.895 53.135C66.3508 52.5895 67.0041 52.2468 67.712 52.1818L80.3648 51.0579C81.0513 51.0355 81.7204 51.2767 82.2347 51.7321C82.749 52.1875 83.0694 52.8225 83.1301 53.5067C83.1909 54.1909 82.9874 54.8724 82.5615 55.4113C82.1355 55.9502 81.5194 56.3056 80.8397 56.4045L68.1869 57.5283C67.4787 57.5891 66.7754 57.3669 66.2306 56.9105C65.6859 56.454 65.3441 55.8003 65.28 55.0925Z" fill="#A89FFF"/>
<path d="M16.7502 42.9683C16.8687 42.2668 17.2605 41.6409 17.8396 41.2277C18.4188 40.8145 19.1382 40.6479 19.8401 40.7642L32.3687 42.8595C33.0375 43.0114 33.6229 43.413 34.0051 43.9823C34.3874 44.5516 34.5377 45.2455 34.4251 45.9219C34.3126 46.5983 33.9458 47.2062 33.3998 47.6211C32.8539 48.0359 32.17 48.2264 31.4881 48.1536L18.9582 46.0583C18.256 45.9407 17.6291 45.5493 17.2151 44.97C16.8012 44.3907 16.6339 43.6708 16.7502 42.9683Z" fill="#A89FFF"/>
<path d="M89.6141 52.4058C89.3483 51.7459 89.3549 51.0076 89.6325 50.3525C89.9101 49.6975 90.436 49.1793 91.0951 48.9114L102.871 44.1446C103.202 43.9884 103.561 43.9013 103.927 43.8887C104.292 43.876 104.657 43.9382 104.997 44.0713C105.338 44.2045 105.648 44.4058 105.908 44.6629C106.169 44.92 106.374 45.2276 106.511 45.5667C106.648 45.9058 106.715 46.2694 106.707 46.6352C106.698 47.0009 106.616 47.3612 106.463 47.6938C106.311 48.0265 106.093 48.3246 105.821 48.5698C105.55 48.815 105.231 49.0022 104.885 49.12L93.1085 53.8867C92.4486 54.1525 91.7103 54.1459 91.0553 53.8683C90.4003 53.5907 89.882 53.0648 89.6141 52.4058Z" fill="#A89FFF"/>
<path d="M36.0025 33.353C40.5158 33.8496 45.1123 33.7562 49.6781 33.6768C61.0923 33.4805 72.5086 33.3862 83.927 33.3939L84.0346 36.0397C84.0422 36.2189 84.0345 36.4237 83.8617 36.5517C83.7053 36.6414 83.5299 36.6932 83.3497 36.7027C79.392 37.2454 75.383 37.5987 71.3587 37.7485C61.4758 38.1235 51.5635 37.3146 41.6768 37.6269C39.7325 37.6883 37.7088 37.7843 35.9078 37.2634L35.8105 35.0989" fill="#E3E5E5"/>
<path d="M80.6655 34.176C80.5102 34.1794 80.3584 34.2231 80.225 34.3029C80.0917 34.3827 79.9814 34.4958 79.9049 34.6311C79.8285 34.7664 79.7886 34.9193 79.7891 35.0746C79.7896 35.23 79.8305 35.3826 79.9078 35.5174C79.9919 35.6514 80.1048 35.7648 80.2384 35.8495C80.3719 35.9342 80.5227 35.988 80.6797 36.007C80.8367 36.026 80.9959 36.0098 81.1458 35.9594C81.2957 35.909 81.4325 35.8258 81.5462 35.7158C82.0121 35.2448 81.8354 34.3808 81.1493 34.2349C80.9945 34.2066 80.8347 34.227 80.6919 34.2934C80.5492 34.3598 80.4306 34.4689 80.3525 34.6056C80.2744 34.7423 80.2406 34.8998 80.2559 35.0565C80.2711 35.2132 80.3347 35.3613 80.4377 35.4803C80.5721 35.6518 80.8678 35.6211 81.0073 35.4803C81.1775 35.3114 81.1353 35.0835 81.0073 34.9107C80.8319 34.6842 81.0623 35.0682 81.0649 34.9926C81.0562 35.0022 81.0458 35.0099 81.0342 35.0154C81.0225 35.0209 81.0099 35.0241 80.997 35.0246C80.9757 35.0144 80.9757 35.0195 80.997 35.04C81.0004 35.0689 81.0004 35.0981 80.997 35.127C80.9661 35.1692 80.9204 35.198 80.869 35.2077C80.6629 35.2653 80.4697 34.9824 80.6617 34.9811C81.1737 34.9811 81.1813 34.1734 80.6617 34.176H80.6655Z" fill="#112870"/>
<path d="M91.6865 33.8624C93.5528 33.6545 95.4331 33.6006 97.3082 33.7011C97.8202 33.7293 97.8202 32.9242 97.3082 32.896C95.4331 32.7954 93.5528 32.8494 91.6865 33.0573C91.1745 33.1136 91.1745 33.9187 91.6865 33.8624Z" fill="#E3E5E5"/>
<path d="M92.5505 36.3354L97.5246 36.0397C98.0366 36.0102 98.0443 35.2038 97.5246 35.2346L92.5505 35.5302C92.0385 35.561 92.0385 36.3661 92.5505 36.3354Z" fill="#E3E5E5"/>
<path d="M93.3119 39.3459L96.3391 39.1309C96.8511 39.0938 96.8511 38.2886 96.3391 38.3258L93.3119 38.5408C92.7999 38.5766 92.7935 39.3818 93.3119 39.3459Z" fill="#E3E5E5"/>
<path d="M15.936 57.6358C16.2991 63.9954 17.1333 70.3194 18.432 76.5555L27.5892 75.0426C27.796 75.0285 27.9943 74.9546 28.16 74.8301C28.2964 74.6799 28.3854 74.4929 28.416 74.2925C29.1239 71.3728 28.8154 68.3123 28.4775 65.3325C28.1421 62.3671 27.7816 59.4048 27.3959 56.4454L16.9908 56.7219" fill="#E3E5E5"/>
<path d="M72.8155 45.184C74.0865 44.8512 75.2885 43.7594 75.4459 42.3975C75.5982 41.0739 73.9022 40.6643 73.2123 41.7011C72.58 42.6522 72.8501 44.6311 74.1288 44.9165C74.8481 45.0778 75.5829 44.6298 76.1653 44.2624C76.9297 43.7762 77.6222 43.185 78.2222 42.5063C78.2921 42.4296 78.3297 42.329 78.3273 42.2253C78.3249 42.1216 78.2827 42.0229 78.2093 41.9495C78.136 41.8762 78.0372 41.834 77.9336 41.8316C77.8299 41.8292 77.7293 41.8668 77.6526 41.9367C76.7694 42.6688 77.2929 44.0653 78.3464 44.2701C79.7429 44.5402 80.5326 43.1795 80.6632 41.9994L80.0577 42.3475C82.0827 43.8835 84.5633 42.4231 86.8008 42.8019C87.3128 42.8877 87.5253 42.112 87.0145 42.025C84.9077 41.6691 82.3259 43.0656 80.4635 41.6525C80.1921 41.4464 79.8875 41.7357 79.8581 41.9994C79.7915 42.601 79.5253 43.3255 78.8584 43.4675C78.2721 43.5955 77.6654 42.9671 78.2184 42.5063L77.6488 41.9367C77.0484 42.6203 76.3475 43.2086 75.5701 43.6813C75.1733 43.9181 74.5089 44.3751 74.0622 44.0103C73.7704 43.7722 73.7038 43.2576 73.6987 42.9069C73.6936 42.5562 73.8152 41.8573 74.3246 41.9059C74.8955 41.961 74.5525 42.7226 74.395 43.0195C74.2089 43.3626 73.9534 43.6632 73.645 43.9022C73.3365 44.1413 72.9817 44.3137 72.603 44.4083C72.1025 44.5363 72.315 45.3159 72.8181 45.184H72.8155Z" fill="#E3E5E5"/>
<path d="M70.8059 66.3885C72.8739 66.5523 74.9497 66.5972 77.0228 66.5229C77.5348 66.5037 77.5425 65.6986 77.0228 65.7178C74.9498 65.7942 72.874 65.7514 70.8059 65.5898C70.2939 65.5501 70.2939 66.3578 70.8059 66.3949V66.3885Z" fill="#E3E5E5"/>
<path d="M104.44 56.0819C102.444 56.2381 100.453 56.4514 98.4693 56.7219C97.9189 56.7975 96.9333 56.7411 96.6606 57.3619C96.5224 57.6819 96.6606 58.0506 96.7323 58.3655L97.0997 59.9015C97.1171 59.969 97.1523 60.0306 97.2016 60.0798C97.2509 60.1291 97.3125 60.1643 97.38 60.1818C99.2307 60.5151 101.122 60.5613 102.986 60.3187C103.638 60.2317 104.54 60.1907 104.997 59.6365C105.145 59.4565 105.222 59.229 105.214 58.9965C105.207 58.6944 104.887 58.2963 104.996 58.0186C105.183 57.536 104.405 57.3261 104.219 57.8048C104.06 58.2131 104.539 58.9261 104.278 59.2128C104.112 59.3933 103.588 59.4227 103.382 59.4573C102.972 59.5256 102.561 59.5776 102.147 59.6135C100.627 59.7435 99.0971 59.6755 97.595 59.4112L97.8766 59.6928L97.6206 58.6304C97.5746 58.4397 97.3198 57.8432 97.4926 57.6755C97.6654 57.5079 98.5704 57.5168 98.7726 57.4912C99.1413 57.4426 99.5103 57.3956 99.8798 57.3504C101.398 57.1644 102.919 57.0129 104.444 56.896C104.956 56.8563 104.956 56.0499 104.444 56.0909L104.44 56.0819Z" fill="#E3E5E5"/>
<path d="M98.0634 62.9031L100.133 63.0861C100.645 63.1322 100.645 62.3271 100.133 62.281L98.0634 62.0979C97.5514 62.0519 97.5514 62.857 98.0634 62.9031Z" fill="#E3E5E5"/>
<path d="M70.3259 63.8541L75.7441 64.0474C76.2561 64.0666 76.2561 63.2614 75.7441 63.2422L70.3259 63.049C69.8139 63.0298 69.8139 63.8349 70.3259 63.8541Z" fill="#E3E5E5"/>
<path d="M30.2643 59.5738C32.2111 59.1047 34.2104 58.8896 36.2124 58.9338C36.7244 58.9453 36.7244 58.1402 36.2124 58.1286C34.138 58.0869 32.0668 58.3136 30.0505 58.8032C29.5475 58.9248 29.7599 59.6992 30.2643 59.5789V59.5738Z" fill="#E3E5E5"/>
<path d="M30.5241 62.4346C31.1834 62.605 31.8671 62.6609 32.5453 62.5997C33.0573 62.5523 33.0573 61.7459 32.5453 61.7946C31.9394 61.8536 31.3279 61.8073 30.7379 61.6576C30.2361 61.5296 30.0211 62.3066 30.5241 62.4346Z" fill="#E3E5E5"/>
<path d="M30.9516 66.432H32.3839C32.9023 66.432 32.9036 65.6269 32.3839 65.6269H30.9503C30.4319 65.6269 30.4306 66.432 30.9503 66.432H30.9516Z" fill="#E3E5E5"/>
<path d="M17.8522 60.649C20.4198 64.0683 22.8634 67.5759 25.1827 71.1719C25.4618 71.6058 26.1594 71.2026 25.8778 70.7648C23.5593 67.1714 21.1157 63.6642 18.5472 60.2432C18.24 59.8336 17.5398 60.2343 17.8522 60.649Z" fill="white"/>
<path d="M20.59 70.6304C21.7903 67.4593 23.2125 64.3767 24.846 61.4054C25.102 60.951 24.4018 60.544 24.151 60.9984C22.4856 64.0319 21.0365 67.1791 19.8143 70.4166C19.6313 70.9018 20.4082 71.1117 20.59 70.6304Z" fill="white"/>
<path d="M66.3449 57.856C70.7823 57.5062 75.2094 57.0633 79.6262 56.5274C80.9894 56.3623 82.8889 56.2995 83.5699 54.8634C84.3571 53.1994 82.9184 51.7325 81.7421 50.7674C81.344 50.4423 80.7718 51.008 81.1725 51.337C81.7613 51.817 82.4051 52.3188 82.7494 53.0138C83.1603 53.8407 82.9849 54.7418 82.1529 55.1898C81.5437 55.5162 80.8038 55.5802 80.1305 55.6634C79.2047 55.7777 78.2788 55.8878 77.3529 55.9936C73.6904 56.4118 70.0211 56.765 66.3449 57.0535C65.8329 57.0932 65.8329 57.8995 66.3449 57.8586V57.856Z" fill="#112870"/>
<path d="M90.2988 49.2122C89.8989 49.3603 89.5557 49.6302 89.3175 49.9839C89.0793 50.3376 88.9583 50.7572 88.9714 51.1834C88.9817 52.0909 89.5845 52.8691 90.3602 53.2903C91.4469 53.8803 92.7001 53.7805 93.8674 53.5232C95.1991 53.2164 96.5099 52.8252 97.7919 52.352C100.37 51.4126 102.896 50.3359 105.359 49.1264C106.3 48.6707 107.023 47.9834 106.889 46.8531C106.767 45.8547 106.15 44.8051 105.377 44.1651C104.315 43.2858 103.058 43.4727 101.85 43.9245C100.273 44.5159 98.7097 45.1482 97.1404 45.7587C96.6629 45.9456 96.8703 46.7239 97.3541 46.5357L100.433 45.3363C101.353 44.9779 102.321 44.4723 103.309 44.3469C104.362 44.2189 105.121 44.8525 105.623 45.7152C105.853 46.1107 106.065 46.5549 106.094 47.017C106.136 47.6711 105.728 48.0333 105.198 48.3136C103.406 49.2608 101.478 50.0442 99.6005 50.8058C97.7228 51.5674 95.7695 52.2663 93.7791 52.7258C92.6757 52.9818 91.3573 53.1341 90.4114 52.3648C89.6933 51.7799 89.4617 50.3847 90.5189 49.9943C91.0002 49.8163 90.7929 49.0381 90.3052 49.2186L90.2988 49.2122Z" fill="#112870"/>
<path d="M48.256 54.4704C50.394 55.2826 52.6176 55.8482 54.8838 56.1562C56.3136 56.3443 58.1389 56.2957 58.9683 54.8928C59.8259 53.4451 59.3459 51.465 57.8714 50.6688C57.0726 50.2362 56.1498 50.0531 55.2819 49.8202L51.6826 48.8538C51.1821 48.7194 50.9683 49.4938 51.4688 49.6307C53.1878 50.0915 54.9414 50.4883 56.6374 51.0298C57.376 51.2653 58.1645 51.625 58.4371 52.4134C58.7098 53.2019 58.6035 54.2464 57.9955 54.839C56.9536 55.8541 54.9965 55.3984 53.7472 55.1693C51.9481 54.8351 50.1821 54.3425 48.4698 53.6973C47.9834 53.5155 47.7734 54.2938 48.256 54.4742V54.4704Z" fill="#112870"/>
<path d="M40.8512 49.3517C40.6285 50.8634 41.6397 52.3904 43.1911 52.6208C43.7031 52.6963 43.9168 51.9206 43.4048 51.8451C42.3322 51.6851 41.4631 50.679 41.6282 49.5654C41.7024 49.0534 40.9268 48.8397 40.8512 49.3517Z" fill="#112870"/>
<path d="M17.9022 40.9191C16.9818 41.2455 16.4532 42.0711 16.3802 43.0349C16.2983 44.1203 16.8807 45.0688 17.714 45.7229C19.995 47.4995 23.4113 47.5047 26.1543 47.7863C27.8132 47.9569 29.4716 48.1276 31.1297 48.2983C32.2702 48.4135 33.5911 48.4723 34.3706 47.4675C35.0798 46.5536 34.9889 45.2775 34.4385 44.3136C33.7985 43.2026 32.6798 42.5216 31.4778 42.1722C29.9073 41.7165 28.1985 41.6666 26.5793 41.4951L20.882 40.8883C20.37 40.8333 20.37 41.6397 20.882 41.6935L28.562 42.5101C30.5614 42.7239 33.7946 43.1027 34.066 45.6819C34.1262 46.2643 33.938 46.912 33.4414 47.2602C32.9793 47.5802 32.3674 47.5815 31.8298 47.5546C30.601 47.4919 29.3697 47.3127 28.146 47.1872C25.6526 46.9312 23.0542 46.8429 20.626 46.1811C19.4945 45.8727 18.194 45.4003 17.5246 44.3687C16.9818 43.5354 17.0394 42.0826 18.1172 41.6999C18.6023 41.5283 18.3924 40.7501 17.9034 40.9242L17.9022 40.9191Z" fill="#112870"/>
<path d="M26.1234 49.2224C26.6866 51.7043 28.6834 53.513 30.9106 54.5651C33.6524 55.8592 36.7538 56.4378 39.6696 57.2147C40.1701 57.3427 40.3839 56.5747 39.8834 56.4378C37.1762 55.7158 34.3154 55.1693 31.7336 54.0582C29.5192 53.1059 27.4559 51.4624 26.9004 49.0086C26.7852 48.503 26.0044 48.7168 26.1234 49.2224Z" fill="#112870"/>
<path d="M67.5636 47.616C69.5757 48.3533 71.6596 49.481 72.4096 51.6275C72.5799 52.1127 73.3581 51.904 73.1853 51.4125C72.3316 48.9805 70.08 47.6839 67.7773 46.8391C67.2896 46.6611 67.0797 47.4381 67.5636 47.616Z" fill="#112870"/>
<path d="M80.5209 46.0135C83.2985 45.9418 85.7689 44.4096 88.5209 44.256C91.0643 44.1139 93.536 45.2595 95.1436 47.2192C95.4726 47.6199 96.0396 47.0477 95.7132 46.6496C94.9061 45.6731 93.8988 44.8812 92.7594 44.3274C91.6199 43.7736 90.3749 43.4708 89.1084 43.4394C86.1248 43.3818 83.4764 45.1315 80.5209 45.2083C80.0089 45.2224 80.0012 46.0275 80.5209 46.0135Z" fill="#112870"/>
<path d="M113.937 36.8128C116.753 38.2976 119.057 40.8986 119.336 44.1805C119.592 47.2269 117.818 50.2643 114.761 51.0272C114.258 51.1552 114.472 51.9296 114.975 51.8042C118.28 50.9786 120.341 47.7197 120.155 44.3955C119.951 40.7437 117.486 37.7728 114.342 36.1178C113.884 35.8771 113.477 36.5709 113.937 36.8128Z" fill="#112870"/>
<path d="M2.80061 44.8077C2.88253 49.3594 7.31901 51.8042 11.2985 52.4442C15.5533 53.129 20.8525 53.1187 23.8502 49.5002C24.1779 49.1047 23.6121 48.5312 23.2806 48.9306C20.5158 52.2714 15.6697 52.2944 11.7286 51.7056C8.06397 51.1552 3.68253 49.088 3.60573 44.8077C3.59677 44.2893 2.79165 44.288 2.80061 44.8077Z" fill="#112870"/>
<path d="M66.6329 86.7559C66.3431 89.4961 65.9129 92.2197 65.3439 94.9159C65.1007 96.0679 64.9446 97.4464 63.6006 97.7626C62.3795 98.0493 60.9945 97.9763 59.7452 98.0083C54.3306 98.1433 48.9172 97.6966 43.598 96.6759C42.1619 96.4011 40.7338 96.0836 39.3139 95.7235C38.6047 95.5443 37.8982 95.3549 37.1942 95.1552C36.6233 94.9927 35.6019 94.857 35.3446 94.2247C35.1526 93.7511 34.3731 93.9584 34.5689 94.4384C35.0041 95.511 36.2111 95.7184 37.2147 95.9974C38.6653 96.4028 40.1245 96.7654 41.5923 97.0854C44.4885 97.7139 47.4186 98.1746 50.3679 98.4653C53.4028 98.7658 56.453 98.8829 59.502 98.816C60.8307 98.7879 62.2207 98.816 63.5353 98.592C64.6988 98.3962 65.422 97.696 65.7766 96.5824C66.2719 95.0323 66.4934 93.3414 66.7609 91.7402C67.0374 90.0847 67.2631 88.4207 67.438 86.7482C67.4931 86.2362 66.6867 86.2362 66.6329 86.7482V86.7559Z" fill="#112870"/>
<path d="M60.7667 65.3786C62.6594 65.7141 64.3488 66.7691 65.4809 68.3226C65.783 68.7386 66.4806 68.3366 66.1759 67.9168C64.9368 66.1841 63.0747 64.9987 60.9804 64.6093C60.4684 64.5158 60.2572 65.2928 60.7667 65.385V65.3786Z" fill="#112870"/>
<path d="M62.3282 67.9898C62.8402 67.9898 62.8466 67.1847 62.3282 67.1847C61.8098 67.1847 61.8086 67.9898 62.3282 67.9898Z" fill="#112870"/>
<path d="M52.9601 95.9053C56.1383 96.467 59.3664 96.6965 62.5921 96.5901C63.1041 96.5735 63.1105 95.7671 62.5921 95.785C59.4384 95.8935 56.2821 95.6739 53.1738 95.1296C52.6618 95.04 52.4494 95.8157 52.9601 95.9053Z" fill="#112870"/>
<path d="M47.8798 96.0627C48.3982 96.0627 48.3982 95.2576 47.8798 95.2576C47.3614 95.2576 47.3601 96.0627 47.8798 96.0627Z" fill="#112870"/>
</svg>
