<svg width="31" height="31" viewBox="0 0 31 31" fill="none" xmlns="http://www.w3.org/2000/svg">
<path d="M29.1667 22.4698V26.7198C29.1683 27.1144 29.0874 27.5049 28.9294 27.8664C28.7713 28.2279 28.5395 28.5524 28.2488 28.8191C27.958 29.0858 27.6148 29.2889 27.241 29.4153C26.8673 29.5417 26.4713 29.5887 26.0783 29.5531C21.719 29.0795 17.5316 27.5899 13.8525 25.204C10.4296 23.0289 7.52755 20.1269 5.35249 16.704C2.95829 13.0082 1.46833 8.80039 1.00332 4.42148C0.967918 4.02972 1.01448 3.63489 1.14003 3.26211C1.26558 2.88934 1.46738 2.54679 1.73257 2.25628C1.99776 1.96576 2.32054 1.73365 2.68036 1.57472C3.04017 1.41579 3.42914 1.33352 3.82249 1.33315H8.07249C8.76 1.32638 9.42652 1.56984 9.94782 2.01815C10.4691 2.46646 10.8096 3.08903 10.9058 3.76981C11.0852 5.12991 11.4179 6.46534 11.8975 7.75065C12.0881 8.2577 12.1293 8.80877 12.0164 9.33856C11.9034 9.86834 11.6409 10.3546 11.26 10.7398L9.46082 12.539C11.4775 16.0857 14.4141 19.0223 17.9608 21.039L19.76 19.2398C20.1452 18.8589 20.6315 18.5964 21.1612 18.4834C21.691 18.3705 22.2421 18.4117 22.7492 18.6023C24.0345 19.0819 25.3699 19.4146 26.73 19.594C27.4182 19.6911 28.0466 20.0377 28.4959 20.5679C28.9452 21.0982 29.1839 21.775 29.1667 22.4698Z" stroke="black" stroke-width="2" stroke-linecap="round" stroke-linejoin="round"/>
</svg>
